<svg width="230" height="45" viewBox="0 0 230 45" fill="none" xmlns="http://www.w3.org/2000/svg">
<circle cx="22.5" cy="22.5" r="22.5" fill="url(#paint0_linear_29_2)"/>
<path d="M19.52 21.16C18.96 21.48 18.2933 21.64 17.52 21.64C16.96 21.64 16.52 21.48 16.2 21.16C15.88 20.8133 15.72 20.3333 15.72 19.72C15.72 18.8133 16.16 18.0933 17.04 17.56C17.9467 17 19.12 16.72 20.56 16.72C22.2667 16.72 23.6 17.0933 24.56 17.84C25.5467 18.5867 26.04 19.6 26.04 20.88V27.8C26.04 28.5467 26.3067 28.92 26.84 28.92C27.3467 28.92 27.84 28.72 28.32 28.32L28.64 28.72C27.6533 29.8133 26.48 30.36 25.12 30.36C24.32 30.36 23.7067 30.16 23.28 29.76C22.88 29.36 22.64 28.7333 22.56 27.88H22.4C21.9733 28.6533 21.4 29.2667 20.68 29.72C19.9867 30.1467 19.1867 30.36 18.28 30.36C17.2667 30.36 16.4533 30.0533 15.84 29.44C15.2267 28.8 14.92 27.9733 14.92 26.96C14.92 25.8133 15.4667 24.9067 16.56 24.24C17.6533 23.5733 19.1333 23.24 21 23.24C21.3467 23.24 21.84 23.2667 22.48 23.32V21.32C22.48 20.0133 22.32 19.08 22 18.52C21.68 17.9333 21.16 17.64 20.44 17.64C19.9333 17.64 19.5333 17.8 19.24 18.12C18.9467 18.44 18.8 18.8533 18.8 19.36C18.8 20.16 19.04 20.76 19.52 21.16ZM20.12 28.36C21.6933 28.36 22.48 26.9333 22.48 24.08C21.1467 24.08 20.1467 24.3067 19.48 24.76C18.8133 25.1867 18.48 25.8 18.48 26.6C18.48 27.1333 18.6267 27.56 18.92 27.88C19.2133 28.2 19.6133 28.36 20.12 28.36ZM34.2894 27.72C34.2894 28.52 34.5427 28.92 35.0494 28.92C35.556 28.92 36.0494 28.72 36.5294 28.32L36.8494 28.72C35.916 29.8133 34.756 30.36 33.3694 30.36C32.436 30.36 31.756 30.1467 31.3294 29.72C30.9027 29.2667 30.6894 28.56 30.6894 27.6V12.92C30.6894 12.5467 30.516 12.36 30.1694 12.36H28.8894L28.7694 11.96C29.276 11.48 29.9294 11.1067 30.7294 10.84C31.556 10.5467 32.3694 10.4 33.1694 10.4C33.516 10.4 33.7827 10.48 33.9694 10.64C34.1827 10.7733 34.2894 10.9733 34.2894 11.24V27.72ZM47.2925 16.72C48.6525 16.72 49.7458 17.32 50.5725 18.52C51.4258 19.6933 51.8525 21.24 51.8525 23.16C51.8525 24.52 51.5992 25.7467 51.0925 26.84C50.6125 27.9067 49.9192 28.7467 49.0125 29.36C48.1325 29.9467 47.1325 30.24 46.0125 30.24C45.3725 30.24 44.7592 30.1467 44.1725 29.96C43.6125 29.7467 43.1325 29.4533 42.7325 29.08V33.64C42.7325 34.28 42.8125 34.7067 42.9725 34.92C43.1592 35.16 43.5725 35.3467 44.2125 35.48L44.7325 35.6L44.4925 36.28H38.2925L37.9725 35.88L38.2925 35.48C38.6125 35.0533 38.8258 34.5867 38.9325 34.08C39.0658 33.6 39.1325 32.9467 39.1325 32.12V19.56C39.1325 19.08 38.9592 18.84 38.6125 18.84H37.3725L37.2525 18.4C37.7592 17.9467 38.4125 17.5733 39.2125 17.28C40.0392 16.9867 40.8392 16.84 41.6125 16.84C41.9592 16.84 42.2258 16.92 42.4125 17.08C42.6258 17.24 42.7325 17.4533 42.7325 17.72V19.48C43.3992 18.52 44.0925 17.8267 44.8125 17.4C45.5592 16.9467 46.3858 16.72 47.2925 16.72ZM44.4925 29.08C45.5858 29.08 46.4125 28.6133 46.9725 27.68C47.5592 26.7467 47.8525 25.3733 47.8525 23.56C47.8525 21.9867 47.6392 20.7867 47.2125 19.96C46.7858 19.1067 46.1725 18.68 45.3725 18.68C44.3058 18.68 43.4258 19.3867 42.7325 20.8V28.56C43.2392 28.9067 43.8258 29.08 44.4925 29.08ZM61.3491 29.04C62.1224 29.04 62.8024 28.9067 63.3891 28.64C63.9757 28.3467 64.5491 27.8667 65.1091 27.2L65.5891 27.56C64.9757 28.44 64.1891 29.1333 63.2291 29.64C62.2957 30.12 61.2691 30.36 60.1491 30.36C58.9224 30.36 57.8157 30.0667 56.8291 29.48C55.8691 28.8933 55.1091 28.0933 54.5491 27.08C53.9891 26.04 53.7091 24.8667 53.7091 23.56C53.7091 21.48 54.3357 19.8267 55.5891 18.6C56.8691 17.3467 58.5624 16.72 60.6691 16.72C62.1624 16.72 63.3757 17.08 64.3091 17.8C65.2691 18.4933 65.7491 19.4 65.7491 20.52C65.7491 21.8 65.2024 22.8267 64.1091 23.6C63.0424 24.3467 61.5757 24.72 59.7091 24.72C58.9624 24.72 58.2824 24.6667 57.6691 24.56C57.8024 25.9467 58.2024 27.04 58.8691 27.84C59.5357 28.64 60.3624 29.04 61.3491 29.04ZM60.2291 17.68C59.4024 17.68 58.7491 18.1867 58.2691 19.2C57.8157 20.1867 57.5891 21.5733 57.5891 23.36V24C57.8824 24 58.2424 23.9733 58.6691 23.92C59.7891 23.7867 60.6424 23.4267 61.2291 22.84C61.8424 22.2267 62.1491 21.4267 62.1491 20.44C62.1491 19.64 61.9624 18.9867 61.5891 18.48C61.2424 17.9467 60.7891 17.68 60.2291 17.68ZM76.2181 16.72C77.0715 16.72 77.7648 16.9733 78.2981 17.48C78.8315 17.96 79.0981 18.5867 79.0981 19.36C79.0981 20.08 78.8848 20.6667 78.4581 21.12C78.0315 21.5467 77.4715 21.76 76.7781 21.76C76.2448 21.76 75.7515 21.6533 75.2981 21.44C75.7781 21.04 76.0181 20.44 76.0181 19.64C76.0181 19.2667 75.9381 18.9733 75.7781 18.76C75.6181 18.5467 75.4048 18.44 75.1381 18.44C74.4981 18.44 73.9648 19.0933 73.5381 20.4C73.1115 21.68 72.8981 23.28 72.8981 25.2C72.8981 26.1867 72.9515 26.9733 73.0581 27.56C73.1915 28.1467 73.4048 28.6933 73.6981 29.2L74.0181 29.6L73.6981 30H67.8981L67.6581 29.32L68.2181 29.2C68.6448 29.0933 68.9248 28.9333 69.0581 28.72C69.1915 28.48 69.2581 28.0267 69.2581 27.36V19.56C69.2581 19.0533 69.0848 18.8 68.7381 18.8H67.4981L67.3381 18.36C67.8448 17.9067 68.4715 17.5333 69.2181 17.24C69.9915 16.9467 70.7515 16.8 71.4981 16.8C71.8448 16.8 72.1248 16.88 72.3381 17.04C72.5515 17.2 72.6581 17.4133 72.6581 17.68V20.6H72.7781C73.3381 18.0133 74.4848 16.72 76.2181 16.72ZM87.8334 29.04C88.6068 29.04 89.2868 28.9067 89.8734 28.64C90.4601 28.3467 91.0334 27.8667 91.5934 27.2L92.0734 27.56C91.4601 28.44 90.6734 29.1333 89.7134 29.64C88.7801 30.12 87.7534 30.36 86.6334 30.36C85.4068 30.36 84.3001 30.0667 83.3134 29.48C82.3534 28.8933 81.5934 28.0933 81.0334 27.08C80.4734 26.04 80.1934 24.8667 80.1934 23.56C80.1934 21.48 80.8201 19.8267 82.0734 18.6C83.3534 17.3467 85.0468 16.72 87.1534 16.72C88.6468 16.72 89.8601 17.08 90.7934 17.8C91.7534 18.4933 92.2334 19.4 92.2334 20.52C92.2334 21.8 91.6868 22.8267 90.5934 23.6C89.5268 24.3467 88.0601 24.72 86.1934 24.72C85.4468 24.72 84.7668 24.6667 84.1534 24.56C84.2868 25.9467 84.6868 27.04 85.3534 27.84C86.0201 28.64 86.8468 29.04 87.8334 29.04ZM86.7134 17.68C85.8868 17.68 85.2334 18.1867 84.7534 19.2C84.3001 20.1867 84.0734 21.5733 84.0734 23.36V24C84.3668 24 84.7268 23.9733 85.1534 23.92C86.2734 23.7867 87.1268 23.4267 87.7134 22.84C88.3268 22.2267 88.6334 21.4267 88.6334 20.44C88.6334 19.64 88.4468 18.9867 88.0734 18.48C87.7268 17.9467 87.2734 17.68 86.7134 17.68ZM107.903 27.72C107.903 28.52 108.156 28.92 108.663 28.92C109.169 28.92 109.663 28.72 110.143 28.32L110.463 28.72C109.476 29.8133 108.316 30.36 106.983 30.36C106.023 30.36 105.329 30.12 104.903 29.64C104.503 29.1333 104.303 28.32 104.303 27.2V21.08C104.303 19.5333 103.809 18.76 102.823 18.76C101.863 18.76 101.076 19.4133 100.463 20.72C99.8758 22.0267 99.5825 23.7333 99.5825 25.84C99.5825 26.64 99.6492 27.2933 99.7825 27.8C99.9158 28.28 100.129 28.7467 100.423 29.2L100.743 29.6L100.423 30H94.6225L94.3825 29.32L94.9425 29.2C95.3692 29.0933 95.6492 28.9333 95.7825 28.72C95.9158 28.48 95.9825 28.0267 95.9825 27.36V19.56C95.9825 19.0533 95.8092 18.8 95.4625 18.8H94.1825L94.0625 18.36C94.5958 17.9067 95.2625 17.5333 96.0625 17.24C96.8625 16.9467 97.6625 16.8 98.4625 16.8C98.8092 16.8 99.0758 16.88 99.2625 17.04C99.4758 17.2 99.5825 17.4133 99.5825 17.68V21.12C99.9558 19.8667 100.623 18.8267 101.583 18C102.543 17.1467 103.556 16.72 104.623 16.72C105.769 16.72 106.596 17.0933 107.103 17.84C107.636 18.5867 107.903 19.7733 107.903 21.4V27.72ZM123.439 20.24C123.439 21.12 123.172 21.8133 122.639 22.32C122.105 22.8267 121.452 23.08 120.679 23.08C120.065 23.08 119.505 22.92 118.999 22.6C119.585 22.0667 119.879 21.32 119.879 20.36C119.879 19.5867 119.719 18.96 119.399 18.48C119.079 17.9733 118.612 17.72 117.999 17.72C117.305 17.72 116.732 18.2667 116.279 19.36C115.852 20.4267 115.639 21.8267 115.639 23.56C115.639 25.2133 115.945 26.5467 116.559 27.56C117.199 28.5467 118.092 29.04 119.239 29.04C120.039 29.04 120.719 28.8933 121.279 28.6C121.865 28.3067 122.412 27.88 122.919 27.32L123.399 27.64C122.839 28.44 122.105 29.0933 121.199 29.6C120.292 30.1067 119.239 30.36 118.039 30.36C116.172 30.36 114.639 29.7333 113.439 28.48C112.239 27.2267 111.639 25.6133 111.639 23.64C111.639 21.5333 112.265 19.8533 113.519 18.6C114.772 17.3467 116.439 16.72 118.519 16.72C119.985 16.72 121.172 17.0533 122.079 17.72C122.985 18.36 123.439 19.2 123.439 20.24ZM132.716 29.04C133.49 29.04 134.17 28.9067 134.756 28.64C135.343 28.3467 135.916 27.8667 136.476 27.2L136.956 27.56C136.343 28.44 135.556 29.1333 134.596 29.64C133.663 30.12 132.636 30.36 131.516 30.36C130.29 30.36 129.183 30.0667 128.196 29.48C127.236 28.8933 126.476 28.0933 125.916 27.08C125.356 26.04 125.076 24.8667 125.076 23.56C125.076 21.48 125.703 19.8267 126.956 18.6C128.236 17.3467 129.93 16.72 132.036 16.72C133.53 16.72 134.743 17.08 135.676 17.8C136.636 18.4933 137.116 19.4 137.116 20.52C137.116 21.8 136.57 22.8267 135.476 23.6C134.41 24.3467 132.943 24.72 131.076 24.72C130.33 24.72 129.65 24.6667 129.036 24.56C129.17 25.9467 129.57 27.04 130.236 27.84C130.903 28.64 131.73 29.04 132.716 29.04ZM131.596 17.68C130.77 17.68 130.116 18.1867 129.636 19.2C129.183 20.1867 128.956 21.5733 128.956 23.36V24C129.25 24 129.61 23.9733 130.036 23.92C131.156 23.7867 132.01 23.4267 132.596 22.84C133.21 22.2267 133.516 21.4267 133.516 20.44C133.516 19.64 133.33 18.9867 132.956 18.48C132.61 17.9467 132.156 17.68 131.596 17.68ZM143.625 27.72C143.625 28.52 143.879 28.92 144.385 28.92C144.892 28.92 145.385 28.72 145.865 28.32L146.185 28.72C145.252 29.8133 144.092 30.36 142.705 30.36C141.772 30.36 141.092 30.1467 140.665 29.72C140.239 29.2667 140.025 28.56 140.025 27.6V12.92C140.025 12.5467 139.852 12.36 139.505 12.36H138.225L138.105 11.96C138.612 11.48 139.265 11.1067 140.065 10.84C140.892 10.5467 141.705 10.4 142.505 10.4C142.852 10.4 143.119 10.48 143.305 10.64C143.519 10.7733 143.625 10.9733 143.625 11.24V27.72ZM152.108 27.72C152.108 28.52 152.362 28.92 152.868 28.92C153.375 28.92 153.868 28.72 154.348 28.32L154.668 28.72C153.682 29.8133 152.522 30.36 151.188 30.36C150.228 30.36 149.535 30.12 149.108 29.64C148.682 29.1333 148.468 28.32 148.468 27.2V19.28C148.468 18.9067 148.295 18.72 147.948 18.72H146.708L146.588 18.28C147.122 17.8267 147.788 17.4533 148.588 17.16C149.388 16.8667 150.188 16.72 150.988 16.72C151.308 16.72 151.575 16.8 151.788 16.96C152.002 17.12 152.108 17.3333 152.108 17.6V27.72ZM148.068 12.88C148.068 12.4 148.335 11.8667 148.868 11.28C149.402 10.6933 149.895 10.4 150.348 10.4C150.828 10.4 151.335 10.6933 151.868 11.28C152.428 11.8667 152.708 12.4 152.708 12.88C152.708 13.3867 152.428 13.9333 151.868 14.52C151.335 15.08 150.828 15.36 150.348 15.36C149.895 15.36 149.402 15.08 148.868 14.52C148.335 13.9333 148.068 13.3867 148.068 12.88ZM170.425 28.8C169.492 29.84 168.332 30.36 166.945 30.36C166.092 30.36 165.412 30.1733 164.905 29.8C164.425 29.4267 164.052 28.8 163.785 27.92L162.545 24.4C162.385 23.9467 162.172 23.6 161.905 23.36C161.665 23.12 161.332 22.9467 160.905 22.84V25.84C160.905 26.6667 160.958 27.32 161.065 27.8C161.198 28.28 161.412 28.7467 161.705 29.2L162.025 29.6L161.705 30H155.905L155.665 29.32L156.225 29.2C156.652 29.0933 156.932 28.9333 157.065 28.72C157.198 28.48 157.265 28.0267 157.265 27.36V12.92C157.265 12.5467 157.092 12.36 156.745 12.36H155.505L155.345 11.96C155.852 11.48 156.505 11.1067 157.305 10.84C158.132 10.5467 158.945 10.4 159.745 10.4C160.092 10.4 160.372 10.48 160.585 10.64C160.798 10.7733 160.905 10.9733 160.905 11.24V22.08L163.305 20.32C163.865 19.92 164.252 19.6 164.465 19.36C164.678 19.12 164.785 18.8667 164.785 18.6C164.785 18.2267 164.625 17.9067 164.305 17.64L163.985 17.4L164.305 17H169.145L169.385 17.68C168.718 17.84 167.972 18.2133 167.145 18.8L162.425 22.24C163.598 22.3733 164.505 22.6533 165.145 23.08C165.785 23.5067 166.252 24.12 166.545 24.92L167.665 28.12C167.852 28.7067 168.225 29 168.785 29C169.185 29 169.625 28.8 170.105 28.4L170.425 28.8Z" fill="#E5DAE9"/>
<path d="M170.778 28.08C170.778 27.6267 171.032 27.1333 171.538 26.6C172.045 26.04 172.512 25.76 172.938 25.76C173.365 25.76 173.832 26.04 174.338 26.6C174.872 27.1333 175.138 27.6267 175.138 28.08C175.138 28.5333 174.872 29.0267 174.338 29.56C173.832 30.0933 173.365 30.36 172.938 30.36C172.512 30.36 172.045 30.0933 171.538 29.56C171.032 29.0267 170.778 28.5333 170.778 28.08ZM188.79 20.24C188.79 21.12 188.524 21.8133 187.99 22.32C187.457 22.8267 186.804 23.08 186.03 23.08C185.417 23.08 184.857 22.92 184.35 22.6C184.937 22.0667 185.23 21.32 185.23 20.36C185.23 19.5867 185.07 18.96 184.75 18.48C184.43 17.9733 183.964 17.72 183.35 17.72C182.657 17.72 182.084 18.2667 181.63 19.36C181.204 20.4267 180.99 21.8267 180.99 23.56C180.99 25.2133 181.297 26.5467 181.91 27.56C182.55 28.5467 183.444 29.04 184.59 29.04C185.39 29.04 186.07 28.8933 186.63 28.6C187.217 28.3067 187.764 27.88 188.27 27.32L188.75 27.64C188.19 28.44 187.457 29.0933 186.55 29.6C185.644 30.1067 184.59 30.36 183.39 30.36C181.524 30.36 179.99 29.7333 178.79 28.48C177.59 27.2267 176.99 25.6133 176.99 23.64C176.99 21.5333 177.617 19.8533 178.87 18.6C180.124 17.3467 181.79 16.72 183.87 16.72C185.337 16.72 186.524 17.0533 187.43 17.72C188.337 18.36 188.79 19.2 188.79 20.24ZM190.428 23.56C190.428 21.4533 191.028 19.7867 192.228 18.56C193.454 17.3333 195.108 16.72 197.188 16.72C199.268 16.72 200.921 17.3467 202.148 18.6C203.374 19.8267 203.988 21.48 203.988 23.56C203.988 25.64 203.374 27.2933 202.148 28.52C200.921 29.7467 199.268 30.36 197.188 30.36C195.108 30.36 193.454 29.7467 192.228 28.52C191.028 27.2933 190.428 25.64 190.428 23.56ZM199.948 23.64C199.948 21.8533 199.694 20.4 199.188 19.28C198.681 18.1333 198.041 17.56 197.268 17.56C196.414 17.56 195.721 18.12 195.188 19.24C194.654 20.3333 194.388 21.7733 194.388 23.56C194.388 25.3733 194.628 26.8133 195.108 27.88C195.614 28.9467 196.281 29.48 197.108 29.48C197.934 29.48 198.614 28.9467 199.148 27.88C199.681 26.7867 199.948 25.3733 199.948 23.64ZM219.178 21.12C219.152 19.6 218.885 18.4933 218.378 17.8C217.872 17.08 217.072 16.72 215.978 16.72C214.938 16.72 214.005 17.1467 213.178 18C212.352 18.8533 211.765 19.8933 211.418 21.12V17.84C211.418 17.5733 211.312 17.3733 211.098 17.24C210.912 17.08 210.645 17 210.298 17C209.498 17 208.698 17.1467 207.898 17.44C207.098 17.7333 206.432 18.1067 205.898 18.56L206.018 18.96H207.298C207.645 18.96 207.818 19.16 207.818 19.56V27.36C207.818 28.0267 207.752 28.48 207.618 28.72C207.485 28.9333 207.205 29.0933 206.778 29.2L206.218 29.32L206.458 30H212.258L212.578 29.6L212.258 29.2C211.938 28.7467 211.712 28.28 211.578 27.8C211.472 27.32 211.418 26.6667 211.418 25.84C211.418 23.9733 211.658 22.3333 212.138 20.92C212.618 19.48 213.285 18.76 214.138 18.76C215.152 18.76 215.658 19.5333 215.658 21.08V30H220.098L220.418 29.6L220.098 29.2C219.805 28.7467 219.592 28.28 219.458 27.8C219.352 27.32 219.285 26.6667 219.258 25.84C219.258 23.9733 219.498 22.3333 219.978 20.92C220.458 19.48 221.125 18.76 221.978 18.76C222.992 18.76 223.498 19.5333 223.498 21.08V26.84C223.498 28.1467 223.698 29.0667 224.098 29.6C224.498 30.1067 225.192 30.36 226.178 30.36C227.512 30.36 228.672 29.8133 229.658 28.72L229.338 28.32C228.858 28.72 228.365 28.92 227.858 28.92C227.352 28.92 227.098 28.52 227.098 27.72V21.4C227.098 19.8 226.832 18.6267 226.298 17.88C225.792 17.1067 224.965 16.72 223.818 16.72C222.858 16.72 221.952 17.1333 221.098 17.96C220.245 18.7867 219.632 19.84 219.258 21.12H219.178Z" fill="#AC3DD3"/>
<defs>
<linearGradient id="paint0_linear_29_2" x1="0" y1="22.5" x2="45" y2="22.5" gradientUnits="userSpaceOnUse">
<stop stop-color="#AC3DD3"/>
<stop offset="1" stop-color="#AC3DD3"/>
</linearGradient>
</defs>
</svg>
