<svg viewBox="0 0 22 22" xmlns="http://www.w3.org/2000/svg">
<path fill-rule="evenodd" clip-rule="evenodd" d="M10.87 0C4.86532 0 0 4.86532 0 10.87C0 15.6716 3.1138 19.7479 7.4342 21.1845C7.97912 21.2835 8.17727 20.9509 8.17727 20.6608C8.17727 20.4025 8.16665 19.7196 8.16311 18.8137C5.13777 19.4683 4.50086 17.3559 4.50086 17.3559C4.00548 16.0998 3.29426 15.7636 3.29426 15.7636C2.30704 15.0913 3.36857 15.1055 3.36857 15.1055C4.4584 15.1833 5.03162 16.2236 5.03162 16.2236C6.00115 17.8867 7.57574 17.4054 8.19496 17.1294C8.29404 16.4253 8.57711 15.9476 8.88495 15.6752C6.47175 15.4027 3.93471 14.4686 3.93471 10.3039C3.93471 9.11495 4.35932 8.14542 5.05285 7.38466C4.94316 7.11221 4.56809 6.00468 5.159 4.50794C5.159 4.50794 6.07191 4.21779 8.14896 5.62254C9.01587 5.38192 9.94647 5.26162 10.87 5.25808C11.7935 5.26162 12.7241 5.38192 13.591 5.62254C15.6681 4.21779 16.5775 4.50794 16.5775 4.50794C17.1719 6.00468 16.8004 7.11221 16.6871 7.38466C17.3842 8.14542 17.8017 9.11495 17.8017 10.3039C17.8017 14.4792 15.2612 15.3956 12.8409 15.6681C13.2301 16.0007 13.5769 16.6659 13.5769 17.6779C13.5769 19.1322 13.5663 20.3034 13.5663 20.6608C13.5663 20.9509 13.7609 21.2906 14.3129 21.1845C18.6297 19.7443 21.74 15.6716 21.74 10.87C21.74 4.86532 16.8747 0 10.87 0Z"/>
</svg>
