<svg viewBox="0 0 20 19" xmlns="http://www.w3.org/2000/svg">
<path d="M4.64193 6.41256H0.605713V18.6379H4.64193V6.41256Z" />
<path d="M2.60503 4.81448C3.92201 4.81448 4.99265 3.80236 4.99265 2.55941C4.99265 1.31646 3.92201 0.304348 2.60503 0.304348C1.28805 0.304348 0.217407 1.31646 0.217407 2.55941C0.217407 3.80236 1.28805 4.81448 2.60503 4.81448Z" />
<path d="M11.1038 12.2278C11.1038 10.5054 11.947 9.48443 13.5672 9.48443C15.0547 9.48443 15.7653 10.4699 15.7653 12.2278C15.7653 13.9857 15.7653 18.6467 15.7653 18.6467H19.7826C19.7826 18.6467 19.7826 14.181 19.7826 10.9049C19.7826 7.62888 17.8024 6.04856 15.0358 6.04856C12.2692 6.04856 11.1038 8.07279 11.1038 8.07279V6.42144H7.22864V18.6467H11.1038C11.1038 18.6467 11.1038 14.11 11.1038 12.2278Z" />
</svg>
