<svg viewBox="0 0 18 16" xmlns="http://www.w3.org/2000/svg">
<path d="M11.523 14.7869C11.523 14.7869 16.024 10.2819 17.778 8.52694C17.924 8.38094 17.997 8.18894 17.997 7.99694C17.997 7.80494 17.924 7.61394 17.778 7.46694C16.025 5.71294 11.523 1.20894 11.523 1.20894C11.379 1.06394 11.189 0.991943 10.999 0.991943C10.806 0.991943 10.614 1.06594 10.467 1.21294C10.174 1.50494 10.172 1.97894 10.463 2.26894L15.441 7.24694H0.749001C0.335001 7.24694 -0.000999451 7.58294 -0.000999451 7.99694C-0.000999451 8.41094 0.335001 8.74694 0.749001 8.74694H15.441L10.462 13.7259C10.173 14.0149 10.176 14.4879 10.468 14.7799C10.616 14.9279 10.809 15.0019 11.001 15.0019C11.191 15.0019 11.379 14.9299 11.523 14.7869Z"/>
</svg>
