<svg viewBox="0 0 24 22" xmlns="http://www.w3.org/2000/svg">
<path d="M24 2C23.628 6.105 21.192 10.091 17.127 11.438C17.424 10.886 17.723 10.293 18.009 9.655C20.924 8.134 22.046 5.405 22.473 3.404H19.785C19.844 2.954 19.888 2.482 19.924 1.999H24V2ZM0 2C0.372 6.105 2.808 10.091 6.873 11.438C6.576 10.886 6.277 10.293 5.991 9.655C3.076 8.134 1.954 5.405 1.527 3.404H4.215C4.157 2.955 4.113 2.482 4.077 2H0ZM16.921 2C16.553 6.506 14.968 9.23 13.549 11.669C12.972 12.662 12.413 13.622 12.006 14.619C11.598 13.621 11.037 12.66 10.458 11.666C9.036 9.229 7.447 6.505 7.079 2H16.921ZM19 0H5C5 9.803 10.105 13.053 10.604 17H13.409C13.906 13.053 19 9.803 19 0ZM13.438 18H10.572C10.37 19.187 9.942 20.619 8.001 20.619V22H16.001V20.619C14.002 20.619 13.63 19.187 13.438 18ZM9.794 5.528L11.254 5.326L11.897 4L12.54 5.326L14 5.528L12.937 6.549L13.197 8L11.897 7.305L10.597 8L10.857 6.549L9.794 5.528Z"/>
</svg>
