<svg viewBox="0 0 22 22"  xmlns="http://www.w3.org/2000/svg">
<path d="M10.9952 2.09359C13.9015 2.09359 14.2383 2.10322 15.3835 2.16096C16.4421 2.20907 17.0195 2.38229 17.4044 2.53627C17.9144 2.72873 18.2705 2.96932 18.6554 3.34463C19.0404 3.72956 19.2713 4.08563 19.4638 4.59566C19.6081 4.9806 19.791 5.558 19.8391 6.61656C19.8872 7.76174 19.9065 8.10818 19.9065 11.0048C19.9065 13.9111 19.8968 14.2479 19.8391 15.3931C19.791 16.4516 19.6178 17.029 19.4638 17.414C19.2713 17.924 19.0307 18.2801 18.6554 18.665C18.2705 19.0499 17.9144 19.2809 17.4044 19.4734C17.0195 19.6177 16.4421 19.8005 15.3835 19.8487C14.2383 19.8968 13.8919 19.916 10.9952 19.916C8.089 19.916 7.75218 19.9064 6.607 19.8487C5.54843 19.8005 4.97104 19.6273 4.5861 19.4734C4.07606 19.2809 3.72 19.0403 3.33507 18.665C2.95013 18.2801 2.71917 17.924 2.52671 17.414C2.38235 17.029 2.19951 16.4516 2.1514 15.3931C2.10328 14.2479 2.08403 13.9014 2.08403 11.0048C2.08403 8.09856 2.09366 7.76174 2.1514 6.61656C2.19951 5.558 2.37273 4.9806 2.52671 4.59566C2.71917 4.08563 2.95976 3.72956 3.33507 3.34463C3.72 2.95969 4.07606 2.72873 4.5861 2.53627C4.97104 2.39192 5.54843 2.20907 6.607 2.16096C7.74256 2.10322 8.089 2.09359 10.9952 2.09359ZM10.9952 0.130432C8.04088 0.130432 7.67519 0.140056 6.51077 0.197796C5.35597 0.245913 4.56685 0.438379 3.87397 0.698209C3.16185 0.977286 2.55558 1.34297 1.94931 1.94924C1.34303 2.55551 0.977347 3.16179 0.69827 3.87391C0.428817 4.56679 0.245973 5.35591 0.197856 6.51071C0.140116 7.66551 0.130493 8.04082 0.130493 10.9952C0.130493 13.9496 0.140116 14.3152 0.197856 15.4797C0.245973 16.6345 0.43844 17.4236 0.69827 18.1165C0.977347 18.8286 1.34303 19.4349 1.94931 20.0411C2.55558 20.6474 3.16185 21.0131 3.87397 21.2922C4.56685 21.5616 5.35597 21.7445 6.51077 21.8022C7.66557 21.8503 8.04088 21.8696 10.9952 21.8696C13.9496 21.8696 14.3153 21.8599 15.4797 21.8022C16.6345 21.7541 17.4236 21.5616 18.1165 21.2922C18.8286 21.0131 19.4349 20.6474 20.0412 20.0411C20.6475 19.4349 21.0131 18.8286 21.2922 18.1165C21.5617 17.4236 21.7445 16.6345 21.8023 15.4797C21.8504 14.3249 21.8696 13.9496 21.8696 10.9952C21.8696 8.04082 21.86 7.67513 21.8023 6.51071C21.7541 5.35591 21.5617 4.56679 21.2922 3.87391C21.0131 3.16179 20.6475 2.55551 20.0412 1.94924C19.4349 1.34297 18.8286 0.977286 18.1165 0.698209C17.4236 0.428756 16.6345 0.245913 15.4797 0.197796C14.3153 0.149679 13.9496 0.130432 10.9952 0.130432Z" />
<path d="M10.9952 5.42327C7.91577 5.42327 5.4137 7.92534 5.4137 11.0048C5.4137 14.0843 7.91577 16.5863 10.9952 16.5863C14.0747 16.5863 16.5768 14.0843 16.5768 11.0048C16.5768 7.92534 14.0747 5.42327 10.9952 5.42327ZM10.9952 14.6232C8.99358 14.6232 7.37686 12.9968 7.37686 11.0048C7.37686 9.00316 9.0032 7.38643 10.9952 7.38643C12.9969 7.38643 14.6136 9.01278 14.6136 11.0048C14.6136 13.0065 12.9969 14.6232 10.9952 14.6232Z" />
<path d="M18.0972 5.20193C18.0972 5.92368 17.5101 6.51071 16.7884 6.51071C16.0666 6.51071 15.4796 5.92368 15.4796 5.20193C15.4796 4.48018 16.0666 3.89316 16.7884 3.89316C17.5198 3.89316 18.0972 4.48018 18.0972 5.20193Z" />
</svg>
