<svg viewBox="0 0 8 7" xmlns="http://www.w3.org/2000/svg">
<path d="M4.97517 5.8424C4.79089 6.1008 4.51175 6.27567 4.19885 6.32875C3.88594 6.38182 3.56475 6.30878 3.30557 6.1256C3.19601 6.04738 3.10029 5.95139 3.02237 5.8416L0.222371 1.8896C0.0391922 1.63042 -0.0338524 1.30923 0.0192234 0.996324C0.0722992 0.683417 0.247172 0.404278 0.505571 0.22C0.708429 0.0766477 0.950773 -0.000220545 1.19917 4.7529e-07H6.79917C7.1166 -2.06416e-06 7.4211 0.125767 7.64601 0.349774C7.87091 0.57378 7.9979 0.877773 7.99917 1.1952C7.99962 1.44586 7.92157 1.69036 7.77597 1.8944L4.97517 5.8424Z"/>
</svg>
