<svg viewBox="0 0 22 15" xmlns="http://www.w3.org/2000/svg">
<path d="M8.12521 13.7809C8.71498 13.6592 9.2205 13.4346 9.65113 13.1069C10.0349 12.8167 10.3532 12.4703 10.606 12.0491C11.0085 11.4125 11.2051 10.6916 11.2051 9.89592C11.2051 9.11891 11.0273 8.46361 10.6809 7.92064C10.3252 7.37768 9.81027 6.98449 9.11752 6.73173C9.56687 6.4977 9.91325 6.24494 10.1473 5.96409C10.5592 5.46793 10.7745 4.80327 10.7745 3.97946C10.7745 3.18373 10.5686 2.49098 10.1566 1.91993C9.47326 0.983779 8.30307 0.506345 6.65545 0.47826H0.130493V13.9682H6.21546C6.90821 13.9682 7.54479 13.9026 8.12521 13.7809ZM2.8266 2.80927H5.76611C6.41205 2.80927 6.94566 2.8748 7.35756 3.02458C7.84436 3.22118 8.08776 3.64244 8.08776 4.26966C8.08776 4.84071 7.90053 5.2339 7.53543 5.45857C7.17033 5.68325 6.6929 5.79559 6.10312 5.79559H2.81724V2.80927H2.8266ZM2.8266 11.6184V8.02362H6.14993C6.73034 8.03298 7.17969 8.10787 7.49799 8.24829C8.06904 8.51042 8.35924 8.99721 8.35924 9.69933C8.35924 10.5325 8.05967 11.0942 7.4699 11.3844C7.14225 11.5435 6.68353 11.6184 6.10312 11.6184H2.8266Z" />
<path d="M13.4986 13.0788C14.519 13.9026 15.6892 14.3052 17.0185 14.3052C18.6287 14.3052 19.8831 13.8184 20.7725 12.8448C21.3529 12.2363 21.6712 11.6278 21.7367 11.038H19.0687C18.9095 11.3282 18.7317 11.5623 18.5351 11.7214C18.1606 12.0303 17.6832 12.1801 17.084 12.1801C16.5223 12.1801 16.0449 12.0584 15.6424 11.8057C14.9871 11.4031 14.6407 10.701 14.5939 9.69933H21.8677C21.8771 8.83807 21.849 8.1734 21.7835 7.71469C21.6618 6.92832 21.3997 6.24494 20.9878 5.65516C20.5384 4.98114 19.958 4.48498 19.2653 4.17605C18.5725 3.86712 17.7861 3.70797 16.9155 3.70797C15.4551 3.70797 14.2662 4.16669 13.3488 5.09347C12.4314 6.02026 11.9727 7.34023 11.9727 9.07211C11.9727 10.9257 12.4782 12.255 13.4986 13.0788ZM15.3615 6.44153C15.7266 6.05771 16.2509 5.87048 16.9155 5.87048C17.5334 5.87048 18.0483 6.04834 18.4602 6.40408C18.8721 6.75982 19.1061 7.29342 19.1529 7.98617H14.65C14.7624 7.33087 14.9964 6.81599 15.3615 6.44153Z" />
<path d="M19.6865 1.23654H13.8169V2.60332H19.6865V1.23654Z" />
</svg>
